<svg width="367" height="367" viewBox="0 0 367 367" fill="none" xmlns="http://www.w3.org/2000/svg">
<path d="M172.23 8.24387C177.554 -1.8644 192.091 -1.68348 197.162 8.55417L249.153 113.516C250.513 116.263 252.737 118.487 255.484 119.847L358.651 170.949C369.213 176.18 368.978 191.325 358.258 196.226L252.493 244.582C249.434 245.98 246.98 248.434 245.582 251.493L196.776 358.243C191.955 368.788 177.137 369.237 171.687 359.002L117.507 257.269C116.199 254.812 114.188 252.801 111.731 251.493L8.33051 196.425C-1.58729 191.143 -1.5548 176.918 8.38702 171.682L112.16 117.023C114.661 115.705 116.705 113.661 118.022 111.16L172.23 8.24387Z" fill="#1F1F1F"/>
</svg>
